# xmcd
#
# Track frame offsets: 
#        150
#        17900
#        35275
#        50855
#        68190
#        82900
#        106682
#        121161
#        138115
#
# Disc length: 2080 seconds
#
# Revision: 0
# Processed by: cddbd v1.5.2PL0 Copyright (c) Steve Scherf et al.
# Submitted via: ExactAudioCopyFreeDBPlugin 1.0
#
DISCID=6c081e09
DTITLE=Gwyn Ashton - Sonic Blues Preachers
DYEAR=2019
DGENRE=Blues
TTITLE0=She's What I Like
TTITLE1=Candy Store
TTITLE2=Fool In Your Life
TTITLE3=Soul For Sale
TTITLE4=The Old Fool
TTITLE5=Take Yourself Away
TTITLE6=If I Don't Feel It
TTITLE7=She's Lost Her Power
TTITLE8=Waiting Game
EXTD=
EXTT0=
EXTT1=
EXTT2=
EXTT3=
EXTT4=
EXTT5=
EXTT6=
EXTT7=
EXTT8=
PLAYORDER=
